<svg width="441" height="353" viewBox="0 0 441 353" fill="none" xmlns="http://www.w3.org/2000/svg">
<path d="M33.075 0C14.8355 0 0 14.8439 0 33.0938V77.2188C0 83.3135 4.93369 88.25 11.025 88.25H66.15V33.0938C66.15 14.8439 51.3145 0 33.075 0ZM176.4 284.448V242.688H374.85V66.1875C374.85 29.6879 345.179 0 308.7 0H76.8925C83.8865 9.24557 88.2 20.6284 88.2 33.0938V286.812C88.2 313.612 112.076 334.833 139.707 330.331C161.392 326.801 176.4 306.434 176.4 284.448ZM198.45 264.75V286.812C198.45 323.305 168.779 353 132.3 353H363.825C406.45 353 441 318.431 441 275.781C441 269.686 436.066 264.75 429.975 264.75H198.45Z" fill="black"/>
</svg>
